<?xml version="1.0" encoding="UTF-8"?>
<svg xmlns="http://www.w3.org/2000/svg" version="1.1" viewBox="0 0 93.23 93.22">
  <!-- Generator: Adobe Illustrator 28.6.0, SVG Export Plug-In . SVG Version: 1.2.0 Build 709)  -->
  <g>
    <g id="Layer_1">
      <g>
        <text transform="translate(30.96 89.81)" font-family="DMSans18pt-ExtraBold, &apos;DM Sans 18pt&apos;" font-size="72" font-weight="700"><tspan x="0" y="0">M</tspan></text>
        <text transform="translate(-3.24 55.46)" font-family="DMSans18pt-ExtraBold, &apos;DM Sans 18pt&apos;" font-size="72" font-weight="700"><tspan x="0" y="0">C</tspan></text>
      </g>
      <path d="M23.9,15.56" stroke="#ed1c24" stroke-linecap="round" stroke-miterlimit="10" stroke-width="2"/>
      <path d="M23.9,30.54" stroke="#ed1c24" stroke-linecap="round" stroke-miterlimit="10" stroke-width="2"/>
      <path d="M10.44,23.97" stroke="#ed1c24" stroke-linecap="round" stroke-miterlimit="10" stroke-width="2"/>
      <path d="M23.9,30.54" stroke="#ed1c24" stroke-linecap="round" stroke-miterlimit="10" stroke-width="2"/>
      <path d="M12.1,39.76" stroke="#ed1c24" stroke-linecap="round" stroke-miterlimit="10" stroke-width="2"/>
      <path d="M23.9,30.54" stroke="#ed1c24" stroke-linecap="round" stroke-miterlimit="10" stroke-width="2"/>
      <path d="M27.02,45.19" stroke="#ed1c24" stroke-linecap="round" stroke-miterlimit="10" stroke-width="2"/>
      <path d="M23.9,30.54" stroke="#ed1c24" stroke-linecap="round" stroke-miterlimit="10" stroke-width="2"/>
      <line x1="23.77" y1="30.36" x2="29.13" y2="13.86" stroke="#ed1c24" stroke-linecap="round" stroke-miterlimit="10" stroke-width="2"/>
      <line x1="23.77" y1="30.36" x2="9.74" y2="20.16" stroke="#ed1c24" stroke-linecap="round" stroke-miterlimit="10" stroke-width="2"/>
      <line x1="23.77" y1="30.36" x2="9.74" y2="40.56" stroke="#ed1c24" stroke-linecap="round" stroke-miterlimit="10" stroke-width="2"/>
      <line x1="23.77" y1="30.36" x2="29.13" y2="46.86" stroke="#ed1c24" stroke-linecap="round" stroke-miterlimit="10" stroke-width="2"/>
      <line x1="23.9" y1="30.54" x2="20.4" y2="20.92" stroke="#ed1c24" stroke-linecap="round" stroke-miterlimit="10" stroke-width="2"/>
      <line x1="23.9" y1="30.54" x2="13.67" y2="30.9" stroke="#ed1c24" stroke-linecap="round" stroke-miterlimit="10" stroke-width="2"/>
      <line x1="23.9" y1="30.54" x2="21.08" y2="40.38" stroke="#ed1c24" stroke-linecap="round" stroke-miterlimit="10" stroke-width="2"/>
      <line x1="23.9" y1="30.54" x2="32.39" y2="36.27" stroke="#ed1c24" stroke-linecap="round" stroke-miterlimit="10" stroke-width="2"/>
      <line x1="23.9" y1="30.54" x2="31.97" y2="24.23" stroke="#ed1c24" stroke-linecap="round" stroke-miterlimit="10" stroke-width="2"/>
      <circle cx="19.88" cy="43.45" r=".81" fill="#ed1c24" stroke="#ed1c24" stroke-linecap="round" stroke-miterlimit="10"/>
      <circle cx="34.24" cy="22.53" r=".81" fill="#ed1c24" stroke="#ed1c24" stroke-linecap="round" stroke-miterlimit="10"/>
      <path d="M93.23,33.44l-4.2-3.1,4.18-2.33-4.65.08,1.49-4.56-3.83,4.02-1.91-4.02.13,4.9-3.76-2.38,1.58,2.71h1.3c.9,0,1.64.79,1.64,1.76s-.73,1.76-1.64,1.76h-1.13l-1.15,2.92,3.1-2.39.59,5.19,1.35-3.72,3.9,3.25-2.13-4.98,5.15.9Z" fill="#ed1c24"/>
      <path d="M23.71,30.54h59.77M27.73,28.03c.35.53.91,1.61,2.26,2.17.68.28,1.28.34,1.73.34M31.72,30.54c-.44,0-1.05.06-1.73.34-1.35.55-1.91,1.63-2.26,2.17M28.48,30.54c0-2.53-2.05-4.57-4.57-4.57s-4.57,2.05-4.57,4.57,2.05,4.57,4.57,4.57,4.57-2.05,4.57-4.57Z" fill="#ed1c24" stroke="#ed1c24" stroke-linecap="round" stroke-miterlimit="10" stroke-width="2"/>
    </g>
  </g>
</svg>